<svg width="262" height="72" xmlns="http://www.w3.org/2000/svg" version="1.1" preserveAspectRatio="none">
 <g>
  <title>Layer 1</title>
  <g id="svg_1" xmlns="http://www.w3.org/2000/svg">
   <path fill="#000000" fill-rule="evenodd" d="m5.43436,9.43436l2.56564,2.56564l-7,0l0,-7l2.95816,2.95816c1.44816,-1.2218 3.31923,-1.95816 5.36229,-1.95816c3.45829,0 6.42379,2.10985 7.67955,5l-2,1c-0.93659,-2.39026 -3.12944,-3.91989 -5.67955,-4c-1.46926,0.05287 -2.81993,0.57862 -3.88609,1.43436z" id="svg_2"/>
  </g>
  <g id="svg_3" xmlns="http://www.w3.org/2000/svg">
   <path fill="#000000" fill-rule="evenodd" d="m30.56564,9.43436l-2.56564,2.56564l7,0l0,-7l-2.95816,2.95816c-1.44816,-1.2218 -3.31923,-1.95816 -5.36229,-1.95816c-3.45829,0 -6.42379,2.10985 -7.67955,5l2,1c0.93659,-2.39026 3.12944,-3.91989 5.67955,-4c1.46926,0.05287 2.81993,0.57862 3.88609,1.43436z" id="svg_4"/>
  </g>
  <g id="svg_5" xmlns="http://www.w3.org/2000/svg">
   <path fill="#000000" fill-rule="evenodd" d="m50,16l-10,0l0,-3l-3,0l0,-4.99408c0,-1.10784 0.89451,-2.00592 1.99406,-2.00592l12.01188,0c1.10129,0 1.99406,0.88655 1.99406,2.00592l0,4.99408l-3,0l0,3zm-8,-5l6,0l0,3l-6,0l0,-3zm-2,-9l10,0l0,3l-10,0l0,-3zm9,6l2,0l0,2l-2,0l0,-2z" id="svg_6"/>
  </g>
  <g id="svg_7" xmlns="http://www.w3.org/2000/svg">
   <path fill="#000000" fill-rule="evenodd" d="m66,2l-8,0c-0.55,0 -1,0.45 -1,1l0,3c0,0.55 0.45,1 1,1l8,0c0.55,0 1,-0.45 1,-1l0,-1l1,0l0,3l-7,0l0,8l2,0l0,-6l7,0l0,-6l-3,0l0,-1c0,-0.55 -0.45,-1 -1,-1z" id="svg_8"/>
  </g>
  <g id="svg_9" xmlns="http://www.w3.org/2000/svg">
   <path fill="#000000" fill-rule="evenodd" d="m74.27,4.55l5.16,5.15l-2.43,5.3l2.5,0l1.64,-3.58l4.59,4.58l1.27,-1.27l-11.45,-11.46l-1.28,1.28l0,0zm3.55,-1.55l2,2l1.76,0l-0.55,1.21l1.71,1.71l1.34,-2.92l3.92,0l0,-2l-10.18,0l0,0z" id="svg_10"/>
  </g>
  <g id="svg_11" xmlns="http://www.w3.org/2000/svg">
   <path fill="#000000" fill-rule="evenodd" d="m103,6.5c0,-1.93 -1.57,-3.5 -3.5,-3.5l-5.5,0l0,12l6.25,0c1.79,0 3.25,-1.46 3.25,-3.25c0,-1.3 -0.77,-2.41 -1.87,-2.93c0.83,-0.58 1.37,-1.44 1.37,-2.32zm-4,-1.5c0.83,0 1.5,0.67 1.5,1.5c0,0.83 -0.67,1.5 -1.5,1.5l-2,0l0,-3l2,0zm-2,8l0,-3l2.5,0c0.83,0 1.5,0.67 1.5,1.5c0,0.83 -0.67,1.5 -1.5,1.5l-2.5,0z" id="svg_12"/>
  </g>
  <g id="svg_13" xmlns="http://www.w3.org/2000/svg">
   <polygon fill="#000000" fill-rule="evenodd" points="115,3 115,5 117.58000183105469,5 113.91999816894531,13 111,13 111,15 119,15 119,13 116.41999816894531,13 120.08000183105469,5 123,5 123,3 " id="svg_14"/>
  </g>
  <g id="svg_15" xmlns="http://www.w3.org/2000/svg">
   <path fill="#000000" d="m135,15c2.76,0 5,-2.24 5,-5l0,-7l-2,0l0,7c0,1.7503 -1.50087,3 -3,3c-1.49913,0 -3,-1.24163 -3,-3l0,-7l-2,0l0,7c0,2.76 2.24,5 5,5zm-6,1l0,2l12,0l0,-2l-12,0z" id="svg_16"/>
  </g>
  <g id="svg_17" xmlns="http://www.w3.org/2000/svg">
   <path fill="#010101" fill-rule="evenodd" d="m148.8875,6.06c0,-0.4575 0.0975,-0.87375 0.29625,-1.2525c0.19875,-0.37875 0.47625,-0.70125 0.83625,-0.9675c0.36,-0.26625 0.78375,-0.4725 1.27875,-0.61875c0.495,-0.14625 1.035,-0.22125 1.6275,-0.22125c0.6075,0 1.15875,0.0825 1.65375,0.25125c0.495,0.16875 0.91875,0.40125 1.27125,0.705c0.3525,0.3 0.6225,0.65625 0.81375,1.0725c0.19125,0.4125 0.285,0.86625 0.285,1.3575l-2.2575,0c0,-0.22875 -0.0375,-0.4425 -0.10875,-0.6375c-0.07125,-0.19875 -0.18375,-0.3675 -0.33375,-0.50625c-0.15,-0.13875 -0.3375,-0.25125 -0.5625,-0.32625c-0.225,-0.07875 -0.49125,-0.11625 -0.79875,-0.11625c-0.29625,0 -0.55125,0.03375 -0.7725,0.0975c-0.2175,0.06375 -0.3975,0.15375 -0.54,0.27c-0.1425,0.11625 -0.25125,0.25125 -0.3225,0.405c-0.07125,0.15375 -0.10875,0.3225 -0.10875,0.495c0,0.36 0.18375,0.66375 0.55125,0.9075c0.02155,0.01408 0.04317,0.02812 0.06493,0.04233c0.26225,0.1713 0.73882,0.48267 1.23882,0.98267l-3,0c0,0 -0.78625,-0.62375 -0.82375,-0.69125c-0.19125,-0.35625 -0.28875,-0.7725 -0.28875,-1.24875zm11.1125,2.94l-14,0l0,2l7.21875,0c0.135,0.0525 0.3,0.105 0.4125,0.15375c0.2775,0.12375 0.495,0.255 0.6525,0.3825c0.1575,0.13125 0.2625,0.27375 0.31875,0.42375c0.05625,0.15375 0.0825,0.32625 0.0825,0.51375c0,0.17625 -0.03375,0.34125 -0.10125,0.49125c-0.0675,0.15375 -0.1725,0.285 -0.31125,0.39375c-0.13875,0.10875 -0.31875,0.195 -0.5325,0.25875c-0.2175,0.06375 -0.46875,0.09375 -0.76125,0.09375c-0.32625,0 -0.6225,-0.03375 -0.88875,-0.0975c-0.26625,-0.06375 -0.49125,-0.16875 -0.67875,-0.31125c-0.1875,-0.1425 -0.33375,-0.33 -0.43875,-0.55875c-0.105,-0.22875 -0.19125,-0.57375 -0.19125,-0.74375l-2.23125,0c0,0.2525 0.06,0.6875 0.17625,1.025c0.11625,0.3375 0.28125,0.64125 0.4875,0.9075c0.20625,0.26625 0.45375,0.495 0.735,0.69c0.28125,0.195 0.585,0.36 0.915,0.4875c0.33,0.13125 0.67125,0.22875 1.035,0.28875c0.36,0.06375 0.72375,0.09375 1.08375,0.09375c0.6,0 1.1475,-0.0675 1.635,-0.20625c0.4875,-0.13875 0.9075,-0.3375 1.2525,-0.5925c0.345,-0.25875 0.61125,-0.57375 0.8025,-0.9525c0.19125,-0.37875 0.28125,-0.80625 0.28125,-1.28625c0,-0.45 -0.07875,-0.855 -0.2325,-1.21125c-0.0375,-0.08625 -0.07875,-0.16875 -0.1275,-0.25125l3.40625,0.0075l0,-2z" id="svg_18"/>
  </g>
  <g id="svg_19" xmlns="http://www.w3.org/2000/svg">
   <path fill="#000000" fill-rule="evenodd" d="m172,1l-2,0l-4.5,12l2,0l1.12,-3l4.75,0l1.12,3l2,0l-4.49,-12l0,0zm-2.62,7l1.62,-4.33l1.62,4.33l-3.24,0l0,0z" id="svg_20"/>
  </g>
  <g id="svg_21" xmlns="http://www.w3.org/2000/svg">
   <g fill="none" fill-rule="evenodd" id="svg_22">
    <path fill="#000000" d="m194.5,8.87c0,0 -1.5,1.62 -1.5,2.62c0,0.83 0.67,1.5 1.5,1.5c0.83,0 1.5,-0.67 1.5,-1.5c0,-0.99 -1.5,-2.62 -1.5,-2.62l0,0zm-1.79,-2.08l-6.8,-6.79l-1.06,1.06l1.59,1.59l-4.15,4.14c-0.39,0.39 -0.39,1.02 0,1.41l4.5,4.5c0.2,0.2 0.45,0.3 0.71,0.3c0.26,0 0.51,-0.1 0.71,-0.29l4.5,-4.5c0.39,-0.39 0.39,-1.03 0,-1.42l0,0zm-8.5,0.21l3.29,-3.29l3.29,3.29l-6.58,0l0,0z" id="svg_23"/>
   </g>
  </g>
  <g id="svg_24" xmlns="http://www.w3.org/2000/svg">
   <path fill="#000000" fill-rule="evenodd" d="m201,6l-2,0l0,-4l7,0l0,2l-5,0l0,2zm7,-2l0,-2l7,0l0,4l-2,0l0,-2l-5,0zm0,10l5,0l0,-2l2,0l0,4l-7,0l0,-2zm-9,-2l2,0l0,2l5,0l0,2l-7,0l0,-4zm0,-4l4,0l0,-2l3,3l-3,3l0,-2l-4,0l0,-2zm9,1l3,-3l0,2l4,0l0,2l-4,0l0,2l-3,-3z" id="svg_25"/>
  </g>
  <g id="svg_26" xmlns="http://www.w3.org/2000/svg">
   <path fill="#000000" fill-rule="evenodd" d="m218,16l10,0l0,-2l-10,0l0,2zm10,-10l-10,0l0,2l10,0l0,-2zm-10,-4l0,2l14,0l0,-2l-14,0zm0,10l14,0l0,-2l-14,0l0,2z" id="svg_27"/>
  </g>
  <g id="svg_28" xmlns="http://www.w3.org/2000/svg">
   <path fill="#000000" fill-rule="evenodd" d="m238,14l0,2l10,0l0,-2l-10,0zm0,-8l0,2l10,0l0,-2l-10,0zm-2,6l14,0l0,-2l-14,0l0,2zm0,-10l0,2l14,0l0,-2l-14,0z" id="svg_29"/>
  </g>
  <g id="svg_30" xmlns="http://www.w3.org/2000/svg">
   <path fill="#000000" fill-rule="evenodd" d="m6,34l10,0l0,-2l-10,0l0,2zm-4,-4l14,0l0,-2l-14,0l0,2zm0,-10l0,2l14,0l0,-2l-14,0zm4,6l10,0l0,-2l-10,0l0,2z" id="svg_31"/>
  </g>
  <g id="svg_32" xmlns="http://www.w3.org/2000/svg">
   <path fill="#000000" fill-rule="evenodd" d="m21,20l0,2l12,0l0,-2l-12,0l0,0zm2.5,7l2.5,0l0,7l2,0l0,-7l2.5,0l-3.5,-3.5l-3.5,3.5l0,0z" id="svg_33"/>
  </g>
  <g id="svg_34" xmlns="http://www.w3.org/2000/svg">
   <path fill="#000000" fill-rule="evenodd" d="m48.5,21l-2.5,0l0,-3l-2,0l0,3l-2.5,0l3.5,3.5l3.5,-3.5l0,0zm-9.5,5l0,2l12,0l0,-2l-12,0l0,0zm2.5,7l2.5,0l0,3l2,0l0,-3l2.5,0l-3.5,-3.5l-3.5,3.5l0,0z" id="svg_35"/>
  </g>
  <g id="svg_36" xmlns="http://www.w3.org/2000/svg">
   <path fill="#000000" fill-rule="evenodd" d="m66.5,27l-2.5,0l0,-7l-2,0l0,7l-2.5,0l3.5,3.5l3.5,-3.5l0,0zm-9.5,5l0,2l12,0l0,-2l-12,0l0,0z" id="svg_37"/>
  </g>
  <g id="svg_38" xmlns="http://www.w3.org/2000/svg">
   <path fill="#000000" fill-rule="evenodd" d="m88,21l-14,0l0,2l14,0l0,-2zm-14,12l4,0l0,-2l-4,0l0,2zm11.5,-7l-11.5,0l0,2l11.75,0c0.83,0 1.5,0.67 1.5,1.5c0,0.83 -0.67,1.5 -1.5,1.5l-2.75,0l0,-2l-3,3l3,3l0,-2l2.5,0c1.93,0 3.5,-1.57 3.5,-3.5c0,-1.93 -1.57,-3.5 -3.5,-3.5z" id="svg_39"/>
  </g>
  <g id="svg_40" xmlns="http://www.w3.org/2000/svg">
   <path fill="#000000" fill-rule="evenodd" d="m92,21l0,1l6,6l0,5l2,-1l0,-4l6,-6l0,-1l-14,0zm4,3l6,0l-3,3l-3,-3z" id="svg_41"/>
  </g>
  <g id="svg_42" xmlns="http://www.w3.org/2000/svg">
   <polygon fill="#000000" fill-rule="evenodd" points="122,20 112,20 112,21.799999237060547 117.5,27 112,32.20000076293945 112,34 122,34 122,32 115.0999984741211,32 120,27 115.0999984741211,22 122,22 " id="svg_43"/>
  </g>
  <g id="svg_44" xmlns="http://www.w3.org/2000/svg">
   <polygon fill="#000000" fill-rule="evenodd" points="131,25 135,29 139,25 " id="svg_45"/>
  </g>
  <g id="svg_46" xmlns="http://www.w3.org/2000/svg">
   <polygon fill="#000000" fill-rule="evenodd" points="142,20 146,24 150,20 " transform="rotate(-90 152 21)" id="svg_47"/>
  </g>
  <g id="svg_48" xmlns="http://www.w3.org/2000/svg">
   <path fill="#000000" fill-rule="evenodd" d="m163.9,27c0,-1.16 0.94,-2.1 2.1,-2.1l4,0l0,-1.9l-4,0c-2.21,0 -4,1.79 -4,4c0,2.21 1.79,4 4,4l4,0l0,-1.9l-4,0c-1.16,0 -2.1,-0.94 -2.1,-2.1l0,0zm12.1,-4l-4,0l0,1.9l4,0c1.16,0 2.1,0.94 2.1,2.1c0,1.16 -0.94,2.1 -2.1,2.1l-4,0l0,1.9l4,0c2.21,0 4,-1.79 4,-4c0,-2.21 -1.79,-4 -4,-4l0,0zm-8,5l6,0l0,-2l-6,0l0,2l0,0z" id="svg_49"/>
  </g>
  <g id="svg_50" xmlns="http://www.w3.org/2000/svg">
   <path fill="#000000" fill-rule="evenodd" d="m196,19c0.55,0 1,0.45 1,1l0,14c0,0.55 -0.45,1 -1,1l-14,0c-0.55,0 -1,-0.45 -1,-1l0,-14c0,-0.55 0.45,-1 1,-1l14,0zm-13,2l0,12l12,0l0,-12l-12,0zm4,10l-2,0l0,-5l2,0l0,5l0,0zm3,0l-2,0l0,-8l2,0l0,8l0,0zm3,0l-2,0l0,-4l2,0l0,4l0,0z" id="svg_51"/>
  </g>
  <g id="svg_52" xmlns="http://www.w3.org/2000/svg">
   <g fill="none" fill-rule="evenodd" id="svg_53">
    <path stroke="#000000" d="m199.5,21.5l15,0l0,12l-15,0l0,-12z" id="svg_54"/>
    <path fill="#000000" d="m204,26l1,0l0,7l-1,0l0,-7z" id="svg_55"/>
    <path fill="#D8D8D8" d="m200,22l14,0l0,3l-14,0l0,-3z" id="svg_56"/>
    <path fill="#000000" d="m200,25l14,0l0,1l-14,0l0,-1zm0,4l14,0l0,1l-14,0l0,-1z" id="svg_57"/>
   </g>
  </g>
  <g id="svg_58" xmlns="http://www.w3.org/2000/svg">
   <path fill="#000000" fill-rule="evenodd" d="m220,25.5c-0.83,0 -1.5,0.67 -1.5,1.5c0,0.83 0.67,1.5 1.5,1.5c0.83,0 1.5,-0.67 1.5,-1.5c0,-0.83 -0.67,-1.5 -1.5,-1.5l0,0zm10,0c-0.83,0 -1.5,0.67 -1.5,1.5c0,0.83 0.67,1.5 1.5,1.5c0.83,0 1.5,-0.67 1.5,-1.5c0,-0.83 -0.67,-1.5 -1.5,-1.5l0,0zm-5,0c-0.83,0 -1.5,0.67 -1.5,1.5c0,0.83 0.67,1.5 1.5,1.5c0.83,0 1.5,-0.67 1.5,-1.5c0,-0.83 -0.67,-1.5 -1.5,-1.5l0,0z" id="svg_59"/>
  </g>
  <g id="svg_60" xmlns="http://www.w3.org/2000/svg">
   <path fill="#000000" fill-rule="evenodd" d="m244,26l0,-4l-2,0l0,4l-4,0l0,2l4,0l0,4l2,0l0,-4l4,0l0,-2l-4,0z" id="svg_61"/>
  </g>
  <g id="svg_62" xmlns="http://www.w3.org/2000/svg">
   <path fill="#000000" fill-rule="evenodd" d="m2,38l0,14l14,0l0,-14l-14,0l0,0zm6,12l-4,0l0,-4l4,0l0,4l0,0zm0,-6l-4,0l0,-4l4,0l0,4l0,0zm6,6l-4,0l0,-4l4,0l0,4l0,0zm0,-6l-4,0l0,-4l4,0l0,4l0,0z" id="svg_63"/>
  </g>
  <g id="svg_64" xmlns="http://www.w3.org/2000/svg">
   <g fill="#000000" fill-rule="evenodd" id="svg_65">
    <path d="m20,52l2,0l0,-2l-2,0l0,2l0,0zm2,-11l-2,0l0,2l2,0l0,-2l0,0zm1,11l2,0l0,-2l-2,0l0,2l0,0zm8,-14l-2,0l0,2l2,0l0,-2l0,0zm-9,0l-2,0l0,2l2,0l0,-2l0,0zm3,0l-2,0l0,2l2,0l0,-2l0,0zm-5,11l2,0l0,-2l-2,0l0,2l0,0zm9,3l2,0l0,-2l-2,0l0,2l0,0zm3,-14l0,2l2,0l0,-2l-2,0l0,0zm0,5l2,0l0,-2l-2,0l0,2l0,0zm0,9l2,0l0,-2l-2,0l0,2l0,0zm0,-3l2,0l0,-2l-2,0l0,2l0,0z" opacity="0.54" id="svg_66"/>
    <polygon points="28,38 26,38 26,44 20,44 20,46 26,46 26,52 28,52 28,46 34,46 34,44 28,44 " id="svg_67"/>
   </g>
  </g>
  <g id="svg_68" xmlns="http://www.w3.org/2000/svg">
   <g fill="#000000" fill-rule="evenodd" id="svg_69">
    <path d="m44,52l2,0l0,-2l-2,0l0,2l0,0zm-3,-12l2,0l0,-2l-2,0l0,2l0,0zm3,9l2,0l0,-2l-2,0l0,2l0,0zm-3,3l2,0l0,-2l-2,0l0,2l0,0zm-3,-9l2,0l0,-2l-2,0l0,2l0,0zm0,9l2,0l0,-2l-2,0l0,2l0,0zm0,-12l2,0l0,-2l-2,0l0,2l0,0zm0,9l2,0l0,-2l-2,0l0,2l0,0zm12,0l2,0l0,-2l-2,0l0,2l0,0zm0,3l2,0l0,-2l-2,0l0,2l0,0zm0,-9l2,0l0,-2l-2,0l0,2l0,0zm0,-5l0,2l2,0l0,-2l-2,0l0,0zm-6,2l2,0l0,-2l-2,0l0,2l0,0zm3,0l2,0l0,-2l-2,0l0,2l0,0zm-3,3l2,0l0,-2l-2,0l0,2l0,0zm3,9l2,0l0,-2l-2,0l0,2l0,0z" opacity="0.54" id="svg_70"/>
    <polygon points="38,46 52,46 52,44 38,44 " id="svg_71"/>
   </g>
  </g>
  <g id="svg_72" xmlns="http://www.w3.org/2000/svg">
   <g fill="#000000" fill-rule="evenodd" id="svg_73">
    <path d="m59,52l2,0l0,-2l-2,0l0,2l0,0zm-3,-9l2,0l0,-2l-2,0l0,2l0,0zm0,-3l2,0l0,-2l-2,0l0,2l0,0zm3,6l2,0l0,-2l-2,0l0,2l0,0zm0,-6l2,0l0,-2l-2,0l0,2l0,0zm-3,12l2,0l0,-2l-2,0l0,2l0,0zm0,-6l2,0l0,-2l-2,0l0,2l0,0zm0,3l2,0l0,-2l-2,0l0,2l0,0zm12,-11l0,2l2,0l0,-2l-2,0l0,0zm0,8l2,0l0,-2l-2,0l0,2l0,0zm0,6l2,0l0,-2l-2,0l0,2l0,0zm0,-9l2,0l0,-2l-2,0l0,2l0,0zm0,6l2,0l0,-2l-2,0l0,2l0,0zm-3,3l2,0l0,-2l-2,0l0,2l0,0zm0,-6l2,0l0,-2l-2,0l0,2l0,0zm0,-6l2,0l0,-2l-2,0l0,2l0,0z" opacity="0.54" id="svg_74"/>
    <polygon points="62,52 64,52 64,38 62,38 " id="svg_75"/>
   </g>
  </g>
  <g id="svg_76" xmlns="http://www.w3.org/2000/svg">
   <g fill="#000000" fill-rule="evenodd" id="svg_77">
    <path d="m82,41l-2,0l0,2l2,0l0,-2l0,0zm3,3l-2,0l0,2l2,0l0,-2l0,0zm-3,0l-2,0l0,2l2,0l0,-2l0,0zm0,3l-2,0l0,2l2,0l0,-2l0,0zm-3,-3l-2,0l0,2l2,0l0,-2l0,0z" opacity="0.54" id="svg_78"/>
    <path d="m74,38l14,0l0,14l-14,0l0,-14zm12,12l0,-10l-10,0l0,10l10,0z" id="svg_79"/>
   </g>
  </g>
  <g id="svg_80" xmlns="http://www.w3.org/2000/svg">
   <g fill="#000000" fill-rule="evenodd" id="svg_81">
    <path d="m98,46l2,0l0,-2l-2,0l0,2l0,0zm0,-3l2,0l0,-2l-2,0l0,2l0,0zm0,6l2,0l0,-2l-2,0l0,2l0,0zm0,3l2,0l0,-2l-2,0l0,2l0,0zm-3,0l2,0l0,-2l-2,0l0,2l0,0zm0,-12l2,0l0,-2l-2,0l0,2l0,0zm0,6l2,0l0,-2l-2,0l0,2l0,0zm9,6l2,0l0,-2l-2,0l0,2l0,0zm0,-6l2,0l0,-2l-2,0l0,2l0,0zm0,3l2,0l0,-2l-2,0l0,2l0,0zm0,-6l2,0l0,-2l-2,0l0,2l0,0zm-6,-3l2,0l0,-2l-2,0l0,2l0,0zm6,-2l0,2l2,0l0,-2l-2,0l0,0zm-3,14l2,0l0,-2l-2,0l0,2l0,0zm0,-6l2,0l0,-2l-2,0l0,2l0,0zm0,-6l2,0l0,-2l-2,0l0,2l0,0z" opacity="0.54" id="svg_82"/>
    <polygon points="92,52 94,52 94,38 92,38 " id="svg_83"/>
   </g>
  </g>
  <g id="svg_84" xmlns="http://www.w3.org/2000/svg">
   <g fill="#000000" fill-rule="evenodd" id="svg_85">
    <path d="m113,46l2,0l0,-2l-2,0l0,2l0,0zm-3,6l2,0l0,-2l-2,0l0,2l0,0zm6,0l2,0l0,-2l-2,0l0,2l0,0zm0,-3l2,0l0,-2l-2,0l0,2l0,0zm-3,3l2,0l0,-2l-2,0l0,2l0,0zm-3,-3l2,0l0,-2l-2,0l0,2l0,0zm6,-3l2,0l0,-2l-2,0l0,2l0,0zm-6,-3l2,0l0,-2l-2,0l0,2l0,0zm0,3l2,0l0,-2l-2,0l0,2l0,0zm12,0l2,0l0,-2l-2,0l0,2l0,0zm0,3l2,0l0,-2l-2,0l0,2l0,0zm0,-6l2,0l0,-2l-2,0l0,2l0,0zm-6,0l2,0l0,-2l-2,0l0,2l0,0zm3,9l2,0l0,-2l-2,0l0,2l0,0zm0,-6l2,0l0,-2l-2,0l0,2l0,0zm3,6l2,0l0,-2l-2,0l0,2l0,0z" opacity="0.54" id="svg_86"/>
    <polygon points="110,38 110,40 124,40 124,38 " id="svg_87"/>
   </g>
  </g>
  <g id="svg_88" xmlns="http://www.w3.org/2000/svg">
   <g fill="#000000" fill-rule="evenodd" id="svg_89">
    <path d="m128,40l2,0l0,-2l-2,0l0,2l0,0zm3,0l2,0l0,-2l-2,0l0,2l0,0zm0,6l2,0l0,-2l-2,0l0,2l0,0zm0,6l2,0l0,-2l-2,0l0,2l0,0zm-3,-9l2,0l0,-2l-2,0l0,2l0,0zm0,3l2,0l0,-2l-2,0l0,2l0,0zm0,6l2,0l0,-2l-2,0l0,2l0,0zm0,-3l2,0l0,-2l-2,0l0,2l0,0zm9,-3l2,0l0,-2l-2,0l0,2l0,0zm-3,6l2,0l0,-2l-2,0l0,2l0,0zm3,0l2,0l0,-2l-2,0l0,2l0,0zm-3,-12l2,0l0,-2l-2,0l0,2l0,0zm3,0l2,0l0,-2l-2,0l0,2l0,0zm-3,9l2,0l0,-2l-2,0l0,2l0,0zm0,-6l2,0l0,-2l-2,0l0,2l0,0zm0,3l2,0l0,-2l-2,0l0,2l0,0z" opacity="0.54" id="svg_90"/>
    <polygon points="140,38 140,52 142,52 142,38 " id="svg_91"/>
   </g>
  </g>
  <g id="svg_92" xmlns="http://www.w3.org/2000/svg">
   <g fill="#000000" fill-rule="evenodd" id="svg_93">
    <path d="m151,38l-2,0l0,2l2,0l0,-2l0,0zm3,6l-2,0l0,2l2,0l0,-2l0,0zm0,3l-2,0l0,2l2,0l0,-2l0,0zm3,-3l-2,0l0,2l2,0l0,-2l0,0zm-6,0l-2,0l0,2l2,0l0,-2l0,0zm6,-6l-2,0l0,2l2,0l0,-2l0,0zm-3,3l-2,0l0,2l2,0l0,-2l0,0zm0,-3l-2,0l0,2l2,0l0,-2l0,0zm-6,9l-2,0l0,2l2,0l0,-2l0,0zm10,2l2,0l0,-2l-2,0l0,2l0,0zm0,-6l2,0l0,-2l-2,0l0,2l0,0zm0,3l2,0l0,-2l-2,0l0,2l0,0zm0,-8l0,2l2,0l0,-2l-2,0l0,0zm-10,0l-2,0l0,2l2,0l0,-2l0,0zm0,3l-2,0l0,2l2,0l0,-2l0,0zm0,3l-2,0l0,2l2,0l0,-2l0,0z" opacity="0.54" id="svg_94"/>
    <polygon points="146,52 160,52 160,50 146,50 " id="svg_95"/>
   </g>
  </g>
  <g id="svg_96" xmlns="http://www.w3.org/2000/svg">
   <path fill="#000000" fill-rule="evenodd" d="m170,52l2,0l0,-2l-2,0l0,2l0,0zm-3,-6l2,0l0,-2l-2,0l0,2l0,0zm0,-6l2,0l0,-2l-2,0l0,2l0,0zm3,9l2,0l0,-2l-2,0l0,2l0,0zm-3,3l2,0l0,-2l-2,0l0,2l0,0zm-3,-9l2,0l0,-2l-2,0l0,2l0,0zm0,9l2,0l0,-2l-2,0l0,2l0,0zm0,-12l2,0l0,-2l-2,0l0,2l0,0zm0,6l2,0l0,-2l-2,0l0,2l0,0zm6,0l2,0l0,-2l-2,0l0,2l0,0zm-6,3l2,0l0,-2l-2,0l0,2l0,0zm12,0l2,0l0,-2l-2,0l0,2l0,0zm0,3l2,0l0,-2l-2,0l0,2l0,0zm0,-6l2,0l0,-2l-2,0l0,2l0,0zm0,-3l2,0l0,-2l-2,0l0,2l0,0zm0,-5l0,2l2,0l0,-2l-2,0l0,0zm-6,2l2,0l0,-2l-2,0l0,2l0,0zm3,0l2,0l0,-2l-2,0l0,2l0,0zm-3,3l2,0l0,-2l-2,0l0,2l0,0zm3,9l2,0l0,-2l-2,0l0,2l0,0zm0,-6l2,0l0,-2l-2,0l0,2l0,0z" opacity="0.54" id="svg_97"/>
  </g>
  <g id="svg_98" xmlns="http://www.w3.org/2000/svg">
   <path fill="#000000" fill-rule="evenodd" d="m190.5,39.62l-6.5,6.5l0,2.88l2.88,0l6.5,-6.5l-2.88,-2.88zm5.35,0.4c0.2,-0.2 0.2,-0.51 0,-0.71l-2.17,-2.17c-0.2,-0.2 -0.51,-0.2 -0.71,0l-1.35,1.36l2.88,2.88l1.35,-1.36l0,0z" id="svg_99"/>
  </g>
  <g id="svg_100" xmlns="http://www.w3.org/2000/svg">
   <path fill="#000000" fill-rule="evenodd" d="m200,40l14,0l0,2l-14,0l0,-2zm0,4l6,0l0,2l-6,0l0,-2zm0,4l2,0l0,2l-2,0l0,-2zm8,-4l6,0l0,2l-6,0l0,-2zm-4,4l2,0l0,2l-2,0l0,-2zm4,0l2,0l0,2l-2,0l0,-2zm4,0l2,0l0,2l-2,0l0,-2z" id="svg_101"/>
  </g>
  <g id="svg_102" xmlns="http://www.w3.org/2000/svg">
   <polygon fill="#000000" fill-rule="evenodd" points="214,38 218,42 222,38 " transform="rotate(90 219 46)" id="svg_103"/>
  </g>
  <g id="svg_104" xmlns="http://www.w3.org/2000/svg">
   <polygon fill="#000000" fill-rule="evenodd" points="246.52999877929688,42.529998779296875 245.47000122070312,41.470001220703125 243,43.939998626708984 240.52999877929688,41.470001220703125 239.47000122070312,42.529998779296875 241.94000244140625,45 239.47000122070312,47.470001220703125 240.52999877929688,48.529998779296875 243,46.060001373291016 245.47000122070312,48.529998779296875 246.52999877929688,47.470001220703125 244.05999755859375,45 " id="svg_105"/>
  </g>
  <g id="svg_106" xmlns="http://www.w3.org/2000/svg">
   <polygon fill="#000000" fill-rule="evenodd" points="12.4399995803833,60.439998626708984 9,63.880001068115234 5.559999942779541,60.439998626708984 4.5,61.5 9,66 13.5,61.5 " id="svg_107"/>
  </g>
  <g id="svg_108" xmlns="http://www.w3.org/2000/svg">
   <polygon fill="#000000" fill-rule="evenodd" points="27,60 22.5,64.5 23.559999465942383,65.56000137329102 27,62.119998931884766 30.440000534057617,65.56000137329102 31.5,64.5 " id="svg_109"/>
  </g>
  <g id="svg_110" xmlns="http://www.w3.org/2000/svg">
   <polygon fill="#000000" fill-rule="evenodd" points="44.4399995803833,54.439999997615814 41,57.88000011444092 37.55999994277954,54.439999997615814 36.5,55.5 41,60 45.5,55.5 " transform="rotate(90 40 62)" id="svg_111"/>
  </g>
  <g id="svg_112" xmlns="http://www.w3.org/2000/svg">
   <polygon fill="#000000" fill-rule="evenodd" points="59,54 54.5,58.5 55.55999994277954,59.55999994277954 59,56.11999988555908 62.4399995803833,59.55999994277954 63.5,58.5 " id="svg_113" transform="rotate(90 58 62)"/>
  </g>
  <g id="svg_114" xmlns="http://www.w3.org/2000/svg">
   <polygon fill="#000000" fill-rule="evenodd" points="75,62 83.875,62 79.94000244140625,58.060001373291016 81,57 87,63 81,69 79.94000244140625,67.94000244140625 83.875,64 75,64 " id="svg_115"/>
  </g>
  <g id="svg_116" xmlns="http://www.w3.org/2000/svg">
   <polygon fill="#000000" fill-rule="evenodd" points="105,62 96.125,62 100.05999755859375,58.060001373291016 99,57 93,63 99,69 100.05999755859375,67.94000244140625 96.125,64 105,64 " id="svg_117"/>
  </g>
  <g id="svg_118" stroke="null">
   <path id="svg_119" d="m111.62842,56.20346l10.97858,0a1.56837,1.49405 0 0 1 1.56837,1.49405l0,10.45837a1.56837,1.49405 0 0 1 -1.56837,1.49405l-10.97858,0a1.56837,1.49405 0 0 1 -1.56837,-1.49405l0,-10.45837a1.56837,1.49405 0 0 1 1.56837,-1.49405zm6.74398,2.24108l0.62735,0a0.47051,0.44822 0 0 1 0.47051,0.44822l0,2.09167a0.47051,0.44822 0 0 1 -0.47051,0.44822l-0.62735,0a0.47051,0.44822 0 0 1 -0.47051,-0.44822l0,-2.09167a0.47051,0.44822 0 0 1 0.47051,-0.44822zm-6.74398,-0.74703l0,10.45837l10.97858,0l0,-10.45837l-10.97858,0zm2.35255,0l0,4.48216l6.27347,0l0,-4.48216l1.56837,0l0,5.22919a0.78418,0.74703 0 0 1 -0.78418,0.74703l-7.84184,0a0.78418,0.74703 0 0 1 -0.78418,-0.74703l0,-5.22919l1.56837,0l-0.00001,0zm-1.56837,0l1.56837,0l-1.56837,0zm7.84184,0l1.56837,0l-1.56837,0zm0,10.45837l0,-2.24108l-6.27347,0l0,2.24108l-1.56837,0l0,-2.98811a0.78418,0.74703 0 0 1 0.78418,-0.74703l7.84184,0a0.78418,0.74703 0 0 1 0.78418,0.74703l0,2.98811l-1.56837,0l0.00001,0zm1.56837,0l-1.56837,0l1.56837,0zm-7.84184,0l-1.56837,0l1.56837,0z" p-id="2679" fill="#2c2c2c" stroke="null"/>
  </g>
  <g id="svg_120" stroke="null">
   <path id="svg_121" d="m127.74177,56.16552l0,13.20064l14.39493,0l0,-13.20064l-14.39493,0zm12.95543,11.7339l-7.91721,-6.60032l-3.59873,3.66684l0,-7.33369l11.51594,0l0,10.26716l0,0.00001z" fill="#333333" p-id="25381" stroke="null"/>
   <path id="svg_122" d="m137.81821,60.56573m-1.43949,0a1.43949,1.46674 0 1 0 2.87899,0a1.43949,1.46674 0 1 0 -2.87899,0z" fill="#333333" p-id="25382" stroke="null"/>
  </g>
  <g id="svg_123" stroke="null">
   <path id="svg_124" d="m147.6552,57.67152l10.96675,0c0.90695,0 1.64501,0.53241 1.64501,1.18666l0,7.91103c0,0.65424 -0.73806,1.18666 -1.64501,1.18666l-10.96675,0c-0.90695,0 -1.64501,-0.53241 -1.64501,-1.18666l0,-7.91103c0,-0.65424 0.73806,-1.18666 1.64501,-1.18666zm10.96675,0.7911l-10.73974,0l11.28807,8.14283l0,-7.74728c0,-0.21755 -0.24675,-0.39555 -0.54834,-0.39555l0.00001,0zm-10.96675,8.70214l10.73974,0l-11.28807,-8.14283l0,7.74728c0,0.21755 0.24675,0.39555 0.54834,0.39555l-0.00001,0z" p-id="29146" stroke="null"/>
  </g>
  <g id="svg_125" stroke="null">
   <path id="svg_126" d="m172.90028,58.22187l-5.82181,0c-0.28417,0 -0.51463,0.21028 -0.51463,0.46958s0.23046,0.46958 0.51463,0.46958l5.82181,0c0.28417,0 0.51463,-0.21028 0.51463,-0.46958s-0.23046,-0.46958 -0.51463,-0.46958zm-1.57993,2.60102l-4.24188,0c-0.28417,0 -0.51463,0.21028 -0.51463,0.46958s0.23046,0.46958 0.51463,0.46958l4.24188,0c0.28417,0 0.51463,-0.21028 0.51463,-0.46958s-0.23046,-0.46958 -0.51463,-0.46958zm-2.78241,2.60102l-1.45947,0c-0.28417,0 -0.51463,0.21028 -0.51463,0.46958s0.23046,0.46958 0.51463,0.46958l1.45947,0c0.28417,0 0.51463,-0.21028 0.51463,-0.46958s-0.23046,-0.46958 -0.51463,-0.46958z" p-id="56046" stroke="null"/>
   <path id="svg_127" d="m169.20794,69.02951l-3.19074,0c-0.99325,0 -1.80122,-0.73724 -1.80122,-1.64352l0,-9.86114c0,-0.90629 0.80798,-1.64352 1.80122,-1.64352l7.94435,0c0.99325,0 1.80122,0.73724 1.80122,1.64352l0,3.55427c0,0.2593 -0.23046,0.46958 -0.51463,0.46958s-0.51463,-0.21028 -0.51463,-0.46958l0,-3.55427c0,-0.38843 -0.34625,-0.70437 -0.77195,-0.70437l-7.94435,0c-0.4257,0 -0.77195,0.31594 -0.77195,0.70437l0,9.86114c0,0.38843 0.34625,0.70437 0.77195,0.70437l3.19074,0c0.28417,0 0.51463,0.21028 0.51463,0.46958s-0.23046,0.46958 -0.51463,0.46958l-0.00001,-0.00001z" p-id="56047" stroke="null"/>
   <path id="svg_128" d="m174.87182,63.56362a2.56636,2.34167 0 0 1 0.56095,0.28409c-0.03667,0.31594 0.04487,0.64185 0.24268,0.93241a1.35273,1.2343 0 0 0 0.42876,0.39268c0.10952,0.06266 0.22467,0.11314 0.3432,0.15071c0.02734,0.13794 0.04101,0.27837 0.04101,0.42042c0,0.10918 -0.0082,0.21777 -0.02445,0.32489c-0.10759,0.03639 -0.21197,0.08335 -0.31184,0.14043c-0.17096,0.09788 -0.31763,0.23127 -0.42393,0.38593c-0.2139,0.3108 -0.29318,0.66651 -0.23689,1.0049a2.55359,2.33002 0 0 1 -0.61997,0.3246c-0.26777,-0.1937 -0.60357,-0.30391 -0.95802,-0.30391c-0.35365,0 -0.68897,0.10991 -0.9569,0.30288a2.54517,2.32234 0 0 1 -0.66307,-0.35688c0.04632,-0.32548 -0.03377,-0.66328 -0.2385,-0.96425c-0.1063,-0.15628 -0.25217,-0.29085 -0.422,-0.38902c-0.08459,-0.04887 -0.17256,-0.09054 -0.26295,-0.12458c-0.01833,-0.11373 -0.0275,-0.22892 -0.0275,-0.34499c0,-0.14307 0.01399,-0.28468 0.04165,-0.4235c0.1018,-0.03595 0.20071,-0.0813 0.29527,-0.13588c0.16999,-0.09802 0.31602,-0.23215 0.42248,-0.38799c0.19331,-0.28307 0.27597,-0.60297 0.24526,-0.91406a2.56163,2.33736 0 0 1 0.58813,-0.31022c0.26809,0.19546 0.60518,0.30655 0.96205,0.30655c0.36282,0 0.70457,-0.11431 0.97459,-0.3152m-0.234,-1.03351c-0.11708,0 -0.22805,0.05767 -0.28321,0.15525c-0.08556,0.151 -0.25812,0.25431 -0.45738,0.25431c-0.19781,0 -0.36973,-0.10184 -0.45577,-0.25137c-0.05516,-0.09582 -0.16517,-0.15159 -0.28064,-0.15159c-0.02493,0 -0.05034,0.00264 -0.07527,0.00792c-0.68237,0.14689 -1.28996,0.47075 -1.76102,0.91568c-0.09633,0.09098 -0.11708,0.22701 -0.05484,0.34c0.07752,0.14073 0.07961,0.32181 -0.04165,0.49951a0.31494,0.28737 0 0 1 -0.09875,0.09069c-0.10807,0.06237 -0.21711,0.08966 -0.31923,0.08981c-0.13847,0.00015 -0.26102,0.08408 -0.30556,0.20383c-0.12399,0.33252 -0.19138,0.68896 -0.19138,1.05978c0,0.33545 0.05516,0.65917 0.15761,0.96396c0.04053,0.12033 0.1597,0.20676 0.29768,0.20838c0.10035,0.00117 0.2073,0.02876 0.31328,0.09025c0.04005,0.02319 0.07382,0.05444 0.09875,0.09113c0.12609,0.18548 0.11788,0.37449 0.03007,0.51742c-0.06755,0.10991 -0.05243,0.24741 0.04053,0.34059c0.48617,0.48733 1.13059,0.84069 1.85928,0.99257c0.0238,0.00499 0.04776,0.00734 0.07157,0.00734c0.11402,0 0.2229,-0.05518 0.27855,-0.14924c0.08701,-0.1466 0.25716,-0.24638 0.45288,-0.24638c0.19588,0 0.36619,0.09993 0.4532,0.24697c0.05597,0.0948 0.16565,0.14894 0.28064,0.14894c0.02477,0 0.04986,-0.00249 0.07462,-0.00763c0.70987,-0.14806 1.33998,-0.48748 1.82132,-0.95574c0.10132,-0.09846 0.11338,-0.24565 0.0357,-0.36069c-0.09826,-0.14542 -0.11193,-0.34338 0.02139,-0.53708c0.02509,-0.03639 0.05934,-0.06691 0.09923,-0.08966c0.10759,-0.06163 0.21631,-0.08863 0.31795,-0.08863c0.00595,0 0.0119,0.00015 0.01785,0.00029c0.00386,0.00015 0.00788,0.00015 0.01174,0.00015c0.14297,0 0.27067,-0.08203 0.31296,-0.20749c0.10277,-0.30523 0.15809,-0.62938 0.15809,-0.96542c0,-0.37992 -0.07076,-0.74472 -0.20071,-1.08414c-0.04503,-0.11754 -0.1671,-0.19517 -0.30235,-0.19517c-0.00579,0 -0.01174,0.00015 -0.01753,0.00044c-0.00933,0.00044 -0.01882,0.00073 -0.0283,0.00073c-0.10164,0 -0.2102,-0.027 -0.31779,-0.08863c-0.04101,-0.02348 -0.07575,-0.05518 -0.10116,-0.09259c-0.12496,-0.18358 -0.11821,-0.37067 -0.03297,-0.51316c0.06851,-0.11431 0.05066,-0.25548 -0.05018,-0.34778c-0.47379,-0.43363 -1.07929,-0.74722 -1.75732,-0.88648c-0.02412,-0.0047 -0.04809,-0.00704 -0.07189,-0.00704l0.00001,-0.00003z" p-id="56048" stroke="null"/>
   <path id="svg_129" d="m173.9154,65.22886c0.31071,0 0.56353,0.23068 0.56353,0.51419s-0.25281,0.51419 -0.56353,0.51419s-0.56353,-0.23068 -0.56353,-0.51419s0.25281,-0.51419 0.56353,-0.51419m0,-0.93916c-0.8797,0 -1.59279,0.65066 -1.59279,1.45334s0.71309,1.45334 1.59279,1.45334s1.59279,-0.65066 1.59279,-1.45334s-0.71309,-1.45334 -1.59279,-1.45334z" p-id="56049" stroke="null"/>
  </g>
  <g id="svg_130" stroke="null">
   <path id="svg_131" d="m182.59237,56.41427c1.86811,0 3.73623,0 5.60436,0c0.5699,0.05053 0.43255,0.94863 0.43255,1.53213c0,1.04806 0,1.73883 0,2.77802c0,0.60378 0.127,1.3438 -0.31972,1.51528c-0.29091,0.1117 -1.07168,0.03369 -1.4481,0.03369c-1.03347,0 -1.87354,0 -2.97143,0c-0.6869,0 -1.6248,0.14678 -1.73019,-0.38725c0,-1.69487 0,-3.38975 0,-5.08462c0.0768,-0.1894 0.21191,-0.3266 0.43255,-0.38725l-0.00002,0zm0.77108,1.14488c0,1.20663 0,2.41324 0,3.61986c1.34781,0 2.69559,0 4.04339,0c0,-1.22346 0,-2.44691 0,-3.67037c-1.34152,0 -2.68306,0 -4.02459,0c-0.02191,0.00283 -0.02042,0.02663 -0.0188,0.05052l0,-0.00001zm6.75154,-1.14488c1.8681,0 3.73623,0 5.60433,0c0.22862,0.07594 0.3857,0.21592 0.43255,0.45458c0,1.64998 0,3.29998 0,4.94994c-0.05128,0.20569 -0.17125,0.38141 -0.39493,0.43775c-0.36555,0.09208 -0.97296,0.01683 -1.41048,0.01683c-1.03083,0 -1.87607,0 -2.8774,0c-0.43393,0 -1.077,0.08184 -1.42929,-0.01683c-0.49729,-0.13929 -0.35732,-1.00837 -0.35732,-1.61632c0,-0.80754 0,-1.75018 0,-2.59283c-0.00001,-0.70192 -0.17211,-1.53506 0.43255,-1.63313l-0.00001,0.00001zm0.77105,1.14488c0,1.20663 0,2.41324 0,3.61986c1.3478,0 2.6956,0 4.0434,0c0,-1.22346 0,-2.44691 0,-3.67037c-1.34151,0 -2.68305,0 -4.02457,0c-0.02192,0.00283 -0.02044,0.02663 -0.01883,0.05052l0,-0.00001zm-5.67956,1.0607c0.56313,-0.09514 1.00598,0.2455 1.01556,0.70714c0.01262,0.60877 -0.6819,0.9432 -1.22242,0.6903c-0.61839,-0.28934 -0.57769,-1.26488 0.20687,-1.39743l-0.00001,-0.00001zm7.52262,0c1.32645,-0.22185 1.301,1.65878 0,1.46478c-0.82796,-0.12343 -0.85469,-1.32182 0,-1.46478zm-4.56999,10.48916c-1.8493,0 -3.69861,0 -5.54793,0c-0.23032,-0.06318 -0.38589,-0.19328 -0.45134,-0.40407c0,-1.68926 0,-3.37855 0,-5.06781c0.05477,-0.1483 0.18123,-0.32131 0.37612,-0.37039c0.36813,-0.09274 0.96947,-0.01683 1.41049,-0.01683c1.01359,0 1.93178,0 2.8774,0c0.42524,0 1.04413,-0.08497 1.42927,0.01683c0.52107,0.13773 0.37615,0.9927 0.37615,1.59946c0,0.93275 0,1.72841 0,2.677c0,0.65489 0.15752,1.50734 -0.47016,1.5658l0,0.00001zm-4.79567,-4.71422c0,1.20663 0,2.41324 0,3.61984c1.34781,0 2.69559,0 4.04339,0c0,-1.22346 0,-2.4469 0,-3.67036c-1.34152,0 -2.68306,0 -4.02459,0c-0.02191,0.00283 -0.02042,0.02661 -0.0188,0.05052zm12.78841,-0.6903c0,0.47141 0,0.94285 0,1.41426c-0.04388,0.47704 -0.00628,1.027 -0.0188,1.53211c-1.33525,0 -2.67051,0 -4.00579,0c0,-0.27498 0,-0.55 0,-0.82499c-0.37613,-0.03924 -0.83373,-0.00561 -1.24122,-0.01683c-0.04388,1.06632 -0.00626,2.20558 -0.0188,3.29995c-0.24448,0 -0.48897,0 -0.73346,0c-0.63065,-0.11315 -0.45136,-0.96034 -0.45136,-1.63316c0,-0.93848 0,-1.71064 0,-2.60965c0,-0.39238 -0.08871,-0.98064 0.01881,-1.2964c0.12827,-0.37675 0.68456,-0.31989 1.24122,-0.31989c0.94107,0 1.77948,0 2.72692,0c0,0.74641 0,1.49285 0,2.23925c0.42001,0 0.84003,0 1.26004,0c0.01252,-0.74082 -0.02508,-1.52652 0.01881,-2.23925c0.60637,-0.03213 1.16801,-0.02423 1.20362,0.45458l0.00001,0.00002zm-10.85135,1.73417c0.6013,-0.05959 1.09835,0.45776 0.86509,1.02702c-0.32332,0.78903 -1.86922,0.49249 -1.57973,-0.50509c0.08002,-0.27576 0.31115,-0.48195 0.71464,-0.52193zm8.18084,3.67035c-0.45136,0 -0.90273,0 -1.35408,0c0.01254,-0.43215 -0.02506,-0.90915 0.01881,-1.31326c0.44508,0 0.89017,0 1.33526,0c0,0.43775 0,0.8755 0,1.31326l0.00001,0zm2.67051,-1.31326c0,0.28623 0,0.57246 0,0.85867c-0.05229,0.23943 -0.20866,0.38563 -0.45137,0.45458c-0.31969,0 -0.63941,0 -0.95912,0c0.01254,-0.43215 -0.02506,-0.90915 0.01881,-1.31326c0.46391,0 0.92778,0 1.39168,0l0,0.00001z" fill="#272636" p-id="27323" stroke="null"/>
  </g>
  <g stroke="null">
   <path stroke="null" fill="#2c2c2c" p-id="9305" d="m209.69173,59.78025l-6.34252,0c-0.31713,0 -0.57659,-0.23431 -0.57659,-0.52069s0.25947,-0.52069 0.57659,-0.52069l6.34252,0c0.31713,0 0.57659,0.23431 0.57659,0.52069s-0.25947,0.52069 -0.57659,0.52069zm-2.30637,3.12413l-4.03615,0c-0.31713,0 -0.57659,-0.23431 -0.57659,-0.52069s0.25947,-0.52069 0.57659,-0.52069l4.03615,0c0.31713,0 0.57659,0.23431 0.57659,0.52069s-0.25947,0.52069 -0.57659,0.52069zm2.30637,2.08275c1.27784,0 2.40653,0.54739 3.12836,1.0066c0.62216,0.39579 1.06677,0.80484 1.3164,1.07612c-0.24963,0.27129 -0.69424,0.68034 -1.3164,1.07615c-0.72184,0.45923 -1.85052,1.00664 -3.12836,1.00664s-2.40652,-0.54741 -3.12836,-1.00662c-0.62216,-0.3958 -1.06677,-0.80485 -1.3164,-1.07615c0.24963,-0.27129 0.69424,-0.68033 1.3164,-1.07612c0.72182,-0.45923 1.85052,-1.00662 3.12836,-1.00662m0,-1.04138c-3.18441,0 -5.76592,2.65349 -5.76592,3.1241c0,0.4706 2.58151,3.12416 5.76592,3.12416s5.76592,-2.65356 5.76592,-3.12416c0,-0.4706 -2.58151,-3.1241 -5.76592,-3.1241z"/>
   <path stroke="null" fill="#2c2c2c" p-id="9306" d="m209.69173,66.5492c0.31794,0 0.57659,0.23358 0.57659,0.52069s-0.25866,0.52069 -0.57659,0.52069s-0.57659,-0.23358 -0.57659,-0.52069s0.25866,-0.52069 0.57659,-0.52069m0,-1.04138c-0.95532,0 -1.72978,0.69937 -1.72978,1.56207s0.77445,1.56207 1.72978,1.56207s1.72978,-0.69937 1.72978,-1.56207s-0.77445,-1.56207 -1.72978,-1.56207z"/>
   <path stroke="null" fill="#2c2c2c" p-id="9307" d="m203.92144,68.63195l-1.72542,0c-0.63425,0 -1.15318,-0.46862 -1.15318,-1.04138l0,-9.89308c0,-0.57276 0.51893,-1.04138 1.15318,-1.04138l8.64889,0c0.63425,0 1.15318,0.46862 1.15318,1.04138l0,5.62117c0.40284,0.14283 0.78851,0.31604 1.15318,0.50894l0,-6.13011c0,-1.14551 -1.03787,-2.08275 -2.30637,-2.08275l-8.64889,0c-1.2685,0 -2.30637,0.93724 -2.30637,2.08275l0,9.89308c0,1.14551 1.03787,2.08275 2.30637,2.08275l2.9925,0c-0.4854,-0.33907 -0.9124,-0.6988 -1.26708,-1.04138z"/>
  </g>
 </g>

</svg>